<svg width="327" height="41" viewBox="0 0 327 41" xmlns="http://www.w3.org/2000/svg">
	<title>EIT-HsKA-Logo</title>
	<g fill="none" fill-rule="evenodd">
		<path d="M326.152 40.124l-5.162-6.685 4.14-4.93h-2.59l-3.817 5.02 4.766 6.593h2.662zm-7.662 0V25.69a12.8 12.8 0 0 0-.275-2.545l-2.15.51c.186.67.3 1.458.3 2.64v13.83h2.125zm-5.736-15.152a1.53 1.53 0 0 0-1.527-1.55c-.83 0-1.5.695-1.5 1.55 0 .833.646 1.53 1.477 1.53.857 0 1.55-.697 1.55-1.53zm-.44 15.152V28.257l-2.195.35v11.517h2.194zm-6.365 0v-8.77c0-.53-.093-1.04-.276-1.457-.416-.995-1.504-1.64-2.73-1.64a4.3 4.3 0 0 0-2.15.58c-.44.25-.767.505-1.507 1.13 0-.715-.115-1.222-.393-1.78l-2.012.558c.326.833.44 1.362.44 2.75v8.628h2.103V31.54c.787-.834 2.037-1.48 2.87-1.48.532 0 .948.16 1.183.462.275.37.37.74.37 1.78v7.82h2.1v.002zm-12.794 0v-8.26c0-1.04-.047-1.34-.23-1.875-.346-1.04-1.55-1.733-2.912-1.733-.857 0-1.67.233-2.525.788a7.994 7.994 0 0 0-1.228.944c.047-.6.068-1.132.068-1.547v-2.59c0-1.134-.09-1.99-.254-2.685l-2.148.44c.162.67.254 1.434.254 2.43v14.086h2.148v-8.33c.902-1.04 2.086-1.688 3.08-1.688.557 0 1.066.21 1.273.44.23.256.393.81.393 1.62v7.958h2.08zm-11.867-1.27l-1.044-1.316c-.69.785-1.55 1.203-2.406 1.203-.672 0-1.25-.256-1.666-.694-.602-.65-.926-1.712-.926-3.333 0-1.598.162-2.754.56-3.542.388-.785 1.15-1.25 2.032-1.25.742 0 1.27.232 2.037.903l1.11-1.457c-.88-.808-1.9-1.222-3.147-1.222-1.135 0-2.152.415-3.006 1.178-1.11.993-1.94 2.497-1.94 5.114 0 1.758.345 3.102 1.11 4.19.805 1.15 2.055 1.73 3.72 1.73 1.483 0 2.454-.417 3.565-1.502zm-13.165-5.646h-4.814c0-2.107.812-3.426 2.43-3.426.74 0 1.298.35 1.667.812.462.577.718 1.502.718 2.614zm2.22 1.572v-.368c-.022-2.662-.396-3.958-1.41-5-.81-.83-1.85-1.247-3.147-1.247-1.436 0-2.57.508-3.496 1.595-.992 1.18-1.383 2.478-1.383 4.488 0 3.796 1.964 6.13 5.18 6.13 1.505 0 2.868-.484 4-1.48l-.808-1.27c-.832.74-1.76 1.11-2.846 1.11-1.11 0-2.063-.44-2.662-1.366-.348-.557-.488-1.318-.488-2.314v-.278h7.058zm-11.292-6.245h-2.822c0-1.18.118-2.638.208-3.47l-2.193.51c-.117.88-.14 2.058-.14 2.96h-1.39v1.5h1.39v7.477c0 1.594.323 1.896.786 2.313.51.46 1.435.623 2.034.623.764 0 1.457-.162 2.104-.486l-.252-1.293c-.37.162-.693.23-1.088.23-1.156 0-1.504-.44-1.504-1.874v-6.992h2.29l.58-1.5zm-8.074 8.03c0-1.53-.88-2.755-3.007-3.242l-1.506-.347c-1.23-.278-1.645-.74-1.645-1.574 0-1.043.79-1.734 2.016-1.734.926 0 1.783.3 2.848.832l.715-1.505c-.948-.555-2.24-.946-3.65-.946-2.503 0-4.19 1.477-4.19 3.605 0 1.713.992 2.848 2.822 3.22l1.412.276c1.344.255 1.943.835 1.943 1.83 0 1.134-.88 1.872-2.152 1.872-1.297 0-2.615-.53-3.723-1.154l-.766 1.525c1.342.785 2.912 1.225 4.326 1.225 2.707 0 4.557-1.57 4.557-3.884zm-12.125 3.56v-8.77c0-.532-.094-1.04-.277-1.458-.418-.995-1.502-1.64-2.73-1.64-.718 0-1.48.186-2.15.58-.444.25-.767.505-1.507 1.13 0-.715-.112-1.222-.392-1.78l-2.014.558c.326.833.44 1.362.44 2.75v8.628h2.105V31.54c.784-.834 2.036-1.48 2.868-1.48.533 0 .95.16 1.184.462.277.37.37.74.37 1.78v7.82h2.103v.002zm-14.37-5.598c0 3.03-.993 4.282-2.612 4.282-1.807 0-2.71-1.182-2.71-4.724 0-2.916.767-4.234 2.618-4.234 1.667 0 2.706 1.088 2.706 4.675zm2.386-.09c0-3.497-1.663-6.224-5.09-6.224-3.054 0-4.974 2.357-4.974 6.108 0 3.772 1.92 6.13 5.02 6.13 3.08 0 5.045-2.335 5.045-6.014zm-12.98-9.465a1.53 1.53 0 0 0-1.524-1.55c-.832 0-1.504.695-1.504 1.55 0 .833.646 1.53 1.48 1.53.853 0 1.55-.697 1.55-1.53zm-.44 15.152V28.257l-2.194.35v11.517h2.195zm-4.858-11.59h-2.822c0-1.18.115-2.637.207-3.47l-2.195.51c-.115.88-.137 2.06-.137 2.96h-1.39v1.5h1.39v7.478c0 1.594.32 1.896.783 2.313.51.46 1.434.623 2.035.623a4.63 4.63 0 0 0 2.107-.486l-.258-1.293c-.367.162-.693.23-1.086.23-1.158 0-1.506-.44-1.506-1.874v-6.992h2.293l.58-1.5zm-11.22 5.9l-.07 2.958c-.532.928-1.458 1.532-2.43 1.532-1.183 0-1.83-.742-1.83-2.013 0-.765.165-1.183.603-1.69.463-.532 1.438-.834 3.035-.834.183 0 .37.024.693.048zm3.007 4.746c-.903-.555-.95-1.204-.95-2.802 0-1.69.094-3.47.094-4.302 0-1.136-.047-1.53-.232-2.04-.44-1.224-1.662-1.847-3.354-1.847-2.248 0-3.727.876-4.86 1.524l.972 1.528c.95-.72 2.34-1.32 3.564-1.32 1.623 0 1.81.926 1.81 2.292v.765c-.304-.024-.536-.024-.812-.024-3.752 0-5.9 1.43-5.9 4.115 0 2.223 1.434 3.4 3.746 3.4 2.014 0 2.988-1.154 3.287-1.522.277.805.83 1.384 1.547 1.66l1.087-1.428zm-12.796.944v-8.652c0-2.13-1.156-3.26-2.957-3.26-1.184 0-2.387.6-3.543 1.824-.578-1.246-1.666-1.823-2.754-1.823s-2.268.6-3.264 1.64c0-.645-.162-1.226-.395-1.617l-1.983.484c.322.812.416 1.25.416 2.893v8.51h2.104v-8.696c.994-.95 1.875-1.343 2.66-1.343 1.064 0 1.434.486 1.434 1.78v8.26h2.085V31.61c.877-.88 1.643-1.575 2.707-1.575.97 0 1.39.464 1.39 1.783v8.306h2.102zm-16.682-11.842a2.102 2.102 0 0 0-.72-.117c-1.226 0-2.218.67-3.144 2.01v-.208c0-.576-.186-1.34-.395-1.78l-2.055.532c.275.716.438 1.48.438 2.892v8.51h2.127v-7.47c0-1.275 1.11-2.363 2.408-2.363.23 0 .392.047.6.116l.742-2.124zm-11.61 6.245c0 3.03-.995 4.282-2.618 4.282-1.805 0-2.707-1.182-2.707-4.724 0-2.916.762-4.234 2.617-4.234 1.666 0 2.707 1.088 2.707 4.675zm2.38-.09c0-3.497-1.666-6.224-5.088-6.224-3.057 0-4.975 2.357-4.975 6.108 0 3.772 1.917 6.13 5.02 6.13 3.077 0 5.042-2.335 5.042-6.014zM151.26 23.86c-.72-.44-1.574-.623-2.523-.623-.857 0-1.55.163-2.104.554-.623.44-1.293 1.318-1.293 2.892 0 .187 0 1.62.045 1.853h-1.133v1.5h1.11v10.088h2.15V30.036h2.495l.557-1.5h-3.076v-1.874c0-1.183.58-1.854 1.55-1.854.53 0 .993.188 1.5.44l.722-1.388zm-10.067 16.264v-8.77c0-.53-.092-1.04-.275-1.457-.418-.995-1.502-1.64-2.727-1.64-.72 0-1.483.186-2.155.58-.44.25-.762.505-1.502 1.13 0-.715-.12-1.222-.395-1.78l-2.01.558c.322.833.438 1.362.438 2.75v8.628h2.104V31.54c.79-.834 2.037-1.48 2.87-1.48.532 0 .95.16 1.18.462.278.37.374.74.374 1.78v7.82h2.1v.002zM128.4 24.188h-2.267v15.938h2.266V24.188zm-13.556 12.998c-.392.698-1.227 1.346-2.454 1.346-.786 0-1.316-.186-1.714-.603-.623-.647-.9-1.273-.9-3.518 0-1.505.16-2.43.6-3.193.442-.742 1.135-1.184 2.015-1.184 1.092 0 1.854.37 2.455 1.088v6.062zm2.475 2.938c-.257-.718-.327-2.013-.327-3.886V23.47l-2.125-.35v4.514c0 .786.048 1.71.048 2.035-.79-.95-1.714-1.342-2.827-1.342-.832 0-1.552.208-2.267.668-1.573 1.017-2.43 2.938-2.43 5.438 0 3.658 1.735 5.876 4.695 5.876 1.23 0 2.176-.416 2.99-1.272.065.578.09.74.205 1.086h2.036zm-13.396 0v-8.77c0-.53-.095-1.04-.28-1.457-.418-.995-1.502-1.64-2.728-1.64-.72 0-1.483.186-2.153.58-.44.25-.763.505-1.504 1.13 0-.715-.117-1.222-.396-1.78l-2.01.558c.322.833.44 1.362.44 2.75v8.628h2.1V31.54c.79-.834 2.038-1.48 2.87-1.48.534 0 .95.16 1.184.462.278.37.372.74.372 1.78v7.82h2.104v.002zm-11.847-.76c-.463-.396-.718-1.23-.718-2.407v-8.72l-2.104.416v8.33c-.484 1.018-1.598 1.827-2.64 1.827-.51 0-1.04-.232-1.345-.51-.414-.393-.53-.855-.53-2.036V28.19l-2.103.416v8.234c0 .834.07 1.482.278 1.946.484 1.062 1.64 1.73 3.122 1.73 1.436 0 2.57-.53 3.496-1.663.206.786.505 1.225 1.085 1.664l1.46-1.154zM274.486 9.898h-4.7V12h4.7V9.9zm-9.625 1.71c0 3.034-.993 4.284-2.616 4.284-1.805 0-2.707-1.182-2.707-4.722 0-2.917.764-4.238 2.613-4.238 1.668 0 2.71 1.09 2.71 4.677zm2.384-.09c0-3.497-1.668-6.222-5.094-6.222-3.055 0-4.97 2.356-4.97 6.104 0 3.774 1.915 6.13 5.02 6.13 3.077 0 5.044-2.333 5.044-6.012zm-11.34-6.156a2.212 2.212 0 0 0-.72-.113c-1.224 0-2.22.667-3.145 2.008V7.05c0-.576-.185-1.34-.392-1.78l-2.06.534c.282.718.442 1.48.442 2.89v8.514h2.127V9.736c0-1.274 1.107-2.363 2.402-2.363.23 0 .395.047.603.118l.74-2.128zm-8.304.255h-2.822c0-1.18.113-2.636.207-3.47l-2.195.51c-.115.878-.14 2.06-.14 2.96h-1.39V7.12h1.39v7.475c0 1.597.325 1.895.788 2.313.504.463 1.43.62 2.03.62.765 0 1.46-.157 2.106-.483l-.252-1.293a2.564 2.564 0 0 1-1.09.233c-1.154 0-1.502-.44-1.502-1.876V7.12h2.29l.58-1.503zm-7.15 11.59l-5.16-6.685 4.142-4.926h-2.592l-3.818 5.02 4.768 6.593h2.66v-.002zm-7.657 0V2.774c0-.95-.14-1.92-.28-2.546l-2.15.51c.19.67.304 1.458.304 2.64v13.832h2.126v-.002zm-7.586-6.915h-4.82c0-2.107.814-3.427 2.434-3.427.743 0 1.3.347 1.667.81.464.58.72 1.507.72 2.617zm2.213 1.57v-.37c-.02-2.66-.39-3.956-1.406-4.997-.807-.83-1.85-1.246-3.145-1.246-1.44 0-2.57.507-3.497 1.59-.994 1.182-1.39 2.48-1.39 4.49 0 3.796 1.968 6.132 5.185 6.132 1.504 0 2.87-.486 4.002-1.478l-.81-1.274c-.83.74-1.757 1.112-2.845 1.112-1.11 0-2.06-.44-2.664-1.367-.345-.555-.483-1.32-.483-2.318v-.275h7.053zm-11.516 5.323l-.373-1.317c-.23.046-.485.025-.647-.092-.3-.208-.367-.626-.367-1.433V3.56c0-1.436 0-2.545-.21-3.31l-2.218.462c.186.9.252 1.69.252 3.333V14.55c0 1.133.094 1.527.44 2.01.44.625.972.877 1.802.877.508 0 .88-.066 1.322-.252zm-6.457.023v-1.92h-6.664V9.827h5.115v-1.87h-5.115V3.092h6.107l.3-1.824h-8.673v15.94h8.93zM193.11 5.362a2.19 2.19 0 0 0-.714-.113c-1.227 0-2.223.667-3.148 2.008V7.05c0-.576-.184-1.34-.395-1.78l-2.055.534c.277.718.44 1.48.44 2.89v8.514h2.124V9.736c0-1.274 1.11-2.363 2.408-2.363.23 0 .393.047.602.118l.74-2.128zM182.726 2.7c0-.784-.625-1.433-1.363-1.433-.74 0-1.342.65-1.342 1.433 0 .79.602 1.457 1.342 1.457.763 0 1.363-.668 1.363-1.457zm-4.836 0c0-.784-.626-1.433-1.366-1.433-.738 0-1.34.65-1.34 1.433 0 .79.602 1.457 1.34 1.457.763 0 1.365-.668 1.365-1.457zm6.128 13.746c-.463-.394-.715-1.225-.715-2.405V5.32l-2.104.415v8.332c-.485 1.018-1.6 1.83-2.638 1.83a2.126 2.126 0 0 1-1.344-.51c-.418-.394-.533-.857-.533-2.037V5.27l-2.104.418v8.237c0 .833.07 1.48.28 1.943.482 1.064 1.64 1.732 3.123 1.732 1.434 0 2.568-.53 3.494-1.662.207.786.51 1.223 1.084 1.662l1.458-1.154zM173.538.944c-.718-.44-1.573-.625-2.52-.625-.855 0-1.55.162-2.107.554-.62.44-1.292 1.32-1.292 2.894 0 .184 0 1.62.047 1.85h-1.13V7.12h1.108V17.21h2.148V7.12h2.5l.552-1.502h-3.074V3.744c0-1.18.578-1.853 1.55-1.853.532 0 .995.186 1.503.44l.72-1.386zm-13.534 4.673h-2.822c0-1.18.115-2.636.207-3.47l-2.196.51c-.115.878-.14 2.06-.14 2.96h-1.388V7.12h1.39v7.475c0 1.597.323 1.895.786 2.313.508.463 1.432.62 2.035.62a4.58 4.58 0 0 0 2.104-.483l-.253-1.293a2.56 2.56 0 0 1-1.086.233c-1.16 0-1.503-.44-1.503-1.876V7.12h2.29l.577-1.503zm-9.44-2.917c0-.784-.625-1.433-1.36-1.433-.74 0-1.345.65-1.345 1.433 0 .79.603 1.457 1.343 1.457.76 0 1.36-.668 1.36-1.457zm-4.834 0c0-.784-.627-1.433-1.367-1.433-.742 0-1.338.65-1.338 1.433 0 .79.596 1.457 1.338 1.457.764 0 1.367-.668 1.367-1.457zm3.055 8.816l-.07 2.962c-.53.927-1.457 1.53-2.428 1.53-1.184 0-1.83-.74-1.83-2.014 0-.764.162-1.18.6-1.692.463-.533 1.438-.833 3.033-.833.19-.002.373.022.695.046zm3.006 4.745c-.9-.556-.946-1.203-.946-2.8 0-1.692.09-3.47.09-4.303 0-1.135-.045-1.53-.23-2.037-.44-1.225-1.662-1.85-3.355-1.85-2.245 0-3.728.877-4.856 1.524l.97 1.53C144.413 7.603 145.8 7 147.03 7c1.618 0 1.802.926 1.802 2.295v.765c-.3-.026-.53-.026-.81-.026-3.747 0-5.897 1.433-5.897 4.12 0 2.222 1.434 3.4 3.746 3.4 2.013 0 2.987-1.157 3.288-1.525.275.806.83 1.385 1.547 1.66l1.086-1.43zM140.5 5.618h-2.822c0-1.18.115-2.636.21-3.47l-2.196.51c-.117.878-.14 2.06-.14 2.96h-1.39V7.12h1.39v7.475c0 1.597.323 1.895.786 2.313.508.463 1.434.62 2.033.62.763 0 1.46-.157 2.106-.483l-.256-1.293c-.367.162-.69.233-1.088.233-1.154 0-1.5-.44-1.5-1.876V7.12h2.287l.58-1.503zm-7.73 11.568l-.368-1.317c-.232.046-.487.025-.65-.092-.3-.208-.368-.626-.368-1.433V3.56c0-1.436 0-2.545-.21-3.31l-2.216.462c.184.9.255 1.69.255 3.333V14.55c0 1.133.092 1.527.436 2.01.44.625.972.877 1.804.877.51 0 .88-.066 1.317-.252zm-6.895-.74c-.462-.393-.715-1.224-.715-2.404V5.32l-2.103.415v8.332c-.486 1.018-1.598 1.83-2.64 1.83-.51 0-1.043-.234-1.342-.51-.418-.394-.533-.857-.533-2.037V5.27l-2.104.418v8.237c0 .833.07 1.48.28 1.943.482 1.064 1.64 1.732 3.12 1.732 1.436 0 2.57-.53 3.496-1.662.208.786.508 1.223 1.084 1.662l1.457-1.154zm-11.172.763l-5.16-6.686 4.144-4.926h-2.592l-3.818 5.02 4.768 6.593h2.658v-.002zm-7.656 0V2.773c0-.95-.14-1.92-.28-2.546l-2.15.51c.186.67.304 1.458.304 2.64v13.832h2.127v-.002zm-8.396-5.692l-.07 2.962c-.532.927-1.457 1.53-2.432 1.53-1.18 0-1.83-.74-1.83-2.014 0-.764.163-1.18.603-1.692.464-.533 1.436-.833 3.036-.833.183-.002.37.022.695.046zm3.004 4.745c-.903-.556-.948-1.203-.948-2.8 0-1.692.092-3.47.092-4.303 0-1.135-.047-1.53-.232-2.037-.436-1.225-1.66-1.85-3.353-1.85-2.245 0-3.725.877-4.857 1.524l.97 1.53C94.276 7.603 95.663 7 96.89 7c1.62 0 1.808.926 1.808 2.295v.765c-.303-.026-.533-.026-.813-.026-3.75 0-5.897 1.433-5.897 4.12 0 2.222 1.43 3.4 3.743 3.4 2.02 0 2.988-1.157 3.29-1.525.28.806.832 1.385 1.546 1.66l1.088-1.43zM91.057 1.27h-8.303v15.94h2.242V9.733h4.718V7.93h-4.718V3.092h5.76l.3-1.824z"
			  fill="#000"/>
		<path d="M.895 1.176v38.96H23.6V33.41H8.857V22.98H19.9v-6.388H8.744V7.567h13.342l1.01-6.392H.896zm28.308 38.96h8.186V1.177h-8.187v38.96zm12.11-38.96V7.68h9.53v32.457h7.962V7.68h9.303L69.4 1.175H41.313z"
			  fill="#DB0031"/>
	</g>
</svg>